<svg width="45" height="45" viewBox="0 0 45 45" fill="none" xmlns="http://www.w3.org/2000/svg">
<path fill-rule="evenodd" clip-rule="evenodd" d="M22.5 0C34.9175 0 45 10.069 45 22.5C45 34.9175 34.931 45 22.5 45C10.0825 45 0 34.931 0 22.5C0 10.0825 10.069 0 22.5 0ZM17.2361 10.15H27.7639C31.7187 10.15 34.9445 13.3488 34.9445 17.2361V27.737C34.9445 31.6377 31.7187 34.823 27.7639 34.823H17.2361C13.2813 34.823 10.0555 31.6377 10.0555 27.737V17.2361C10.0555 13.3353 13.2948 10.15 17.2361 10.15ZM22.4325 15.8323C26.2792 15.8323 29.3971 18.9502 29.3971 22.7969C29.3971 26.6437 26.2792 29.7615 22.4325 29.7615C18.5858 29.7615 15.4679 26.6437 15.4679 22.7969C15.4679 18.9502 18.5858 15.8323 22.4325 15.8323ZM22.4325 18.1809C24.97 18.1809 27.0351 20.246 27.0351 22.7834C27.0351 25.3209 24.97 27.386 22.4325 27.386C19.8815 27.386 17.8299 25.3209 17.8299 22.7834C17.8299 20.246 19.895 18.1809 22.4325 18.1809ZM29.1677 14.8605C29.7885 14.8605 30.3014 15.3599 30.3014 15.9943C30.3014 16.6152 29.802 17.1281 29.1677 17.1281C28.5468 17.1281 28.0339 16.6287 28.0339 15.9943C28.0339 15.3734 28.5333 14.8605 29.1677 14.8605ZM18.0999 12.1611H26.9001C30.207 12.1611 32.9064 14.847 32.9064 18.1404V26.9946C32.9064 30.2879 30.207 32.9739 26.9001 32.9739H18.0999C14.793 32.9739 12.0936 30.2879 12.0936 26.9946V18.1404C12.0936 14.847 14.793 12.1611 18.0999 12.1611Z" fill="#405A69"/>
</svg>
