<svg width="45" height="45" viewBox="0 0 45 45" fill="none" xmlns="http://www.w3.org/2000/svg">
<path fill-rule="evenodd" clip-rule="evenodd" d="M22.5 0C26.9501 0 31.3002 1.3196 35.0003 3.79193C38.7004 6.26427 41.5843 9.77829 43.2873 13.8896C44.9903 18.001 45.4358 22.525 44.5677 26.8895C43.6995 31.2541 41.5566 35.2632 38.4099 38.4099C35.2632 41.5566 31.2541 43.6995 26.8895 44.5677C22.525 45.4358 18.001 44.9903 13.8896 43.2873C9.77829 41.5843 6.26427 38.7004 3.79193 35.0003C1.3196 31.3002 0 26.9501 0 22.5C0 16.5326 2.37053 10.8097 6.5901 6.5901C10.8097 2.37053 16.5326 0 22.5 0ZM11.2537 13.916L22.7051 23.2434L33.6585 13.916H11.2537ZM10.5212 29.6228L18.6768 21.4417L10.5139 14.7913V29.6155L10.5212 29.6228ZM19.5667 22.1741L11.1621 30.5969H33.7683L25.7336 22.1741L23.0713 24.4299C22.9682 24.5151 22.8388 24.5617 22.7051 24.5617C22.5714 24.5617 22.4419 24.5151 22.3389 24.4299L19.5593 22.1631L19.5667 22.1741ZM26.6126 21.4417L34.4861 29.696V14.718L26.6126 21.427V21.4417Z" fill="#405A69"/>
</svg>
