<svg width="45" height="45" viewBox="0 0 45 45" fill="none" xmlns="http://www.w3.org/2000/svg">
<path fill-rule="evenodd" clip-rule="evenodd" d="M22.5 0C34.9265 0 45 10.0735 45 22.5C45 34.9265 34.9265 45 22.5 45C10.0735 45 0 34.9265 0 22.5C0 10.0735 10.0735 0 22.5 0ZM33.3295 12.3127L29.3153 32.5517C29.3153 32.5517 28.754 33.9551 27.2101 33.2812L17.9748 26.0109C17.9748 26.0109 28.2488 16.7757 28.6698 16.3828C29.0908 15.9898 28.9504 15.9057 28.9504 15.9057C28.9784 15.4284 28.1925 15.9057 28.1925 15.9057L14.5784 24.5515L8.90809 22.6426C8.90809 22.6426 8.03788 22.3337 7.95378 21.6602C7.86954 20.9862 8.93617 20.6215 8.93617 20.6215L31.4771 11.7793C31.4771 11.7793 33.3295 10.9652 33.3295 12.3127ZM21.4986 28.9026L17.8345 32.2432C17.8345 32.2432 17.5481 32.4604 17.2347 32.3243L17.9363 26.1191L21.4986 28.9026Z" fill="#405A69"/>
</svg>
