<svg width="45" height="45" viewBox="0 0 45 45" fill="none" xmlns="http://www.w3.org/2000/svg">
<path fill-rule="evenodd" clip-rule="evenodd" d="M22.5 0C34.9175 0 45 10.069 45 22.5C45 34.9175 34.931 45 22.5 45C10.0825 45 0 34.931 0 22.5C0 10.0825 10.069 0 22.5 0ZM31.9481 12.8494C29.5861 10.4874 26.4547 9.19166 23.1074 9.19166C16.2238 9.19166 10.6224 14.793 10.6224 21.6767C10.6224 23.8767 11.2028 26.0228 12.296 27.9124L10.5279 34.3911L17.1551 32.65C18.9772 33.6488 21.0288 34.1752 23.1209 34.1752C30.0045 34.1752 35.6059 28.5738 35.6059 21.6902C35.6059 18.3563 34.3101 15.2115 31.9481 12.8494ZM23.1209 32.0696C21.2582 32.0696 19.4226 31.5702 17.8299 30.6254L17.452 30.3959L13.5243 31.4217L14.5771 27.5885L14.3341 27.1971C13.2948 25.5504 12.7415 23.6338 12.7415 21.6767C12.7415 15.9538 17.398 11.2972 23.1344 11.2972C25.9013 11.2972 28.5198 12.377 30.4769 14.3341C32.434 16.3047 33.5138 18.8962 33.5138 21.6767C33.5138 27.3995 28.8572 32.0696 23.1344 32.0696H23.1209ZM28.8167 24.2951C28.5063 24.1332 26.9676 23.3908 26.6842 23.2828C26.4007 23.1749 26.1848 23.1209 25.9823 23.4448C25.7798 23.7553 25.1725 24.4571 24.997 24.6731C24.808 24.8755 24.6326 24.916 24.3221 24.754C24.0117 24.5921 22.9994 24.2681 21.8116 23.2019C20.8803 22.3785 20.2594 21.3527 20.0705 21.0423C19.8815 20.7319 20.0435 20.5564 20.2055 20.4079C20.3539 20.2729 20.5159 20.0435 20.6779 19.8545C20.8398 19.6656 20.8803 19.5441 20.9883 19.3281C21.0963 19.1257 21.0423 18.9367 20.9613 18.7747C20.8803 18.6128 20.2594 17.0876 20.003 16.4532C19.7466 15.8458 19.4901 15.9268 19.3011 15.9133C19.1122 15.8998 18.9097 15.8998 18.7073 15.8998C18.5048 15.8998 18.1674 15.9808 17.8704 16.2912C17.587 16.6017 16.7771 17.3575 16.7771 18.8962C16.7771 20.4349 17.8974 21.9196 18.0459 22.1221C18.2079 22.3245 20.246 25.4829 23.3773 26.8326C24.1197 27.1566 24.7001 27.3455 25.159 27.494C25.9013 27.7235 26.5897 27.6965 27.1296 27.6155C27.7235 27.521 28.9787 26.8596 29.2352 26.1308C29.4916 25.4019 29.4916 24.781 29.4241 24.6461C29.3566 24.5111 29.1407 24.4301 28.8302 24.2681L28.8167 24.2951Z" fill="#405A69"/>
</svg>
