<svg width="142" height="142" viewBox="0 0 142 142" fill="none" xmlns="http://www.w3.org/2000/svg">
<g clip-path="url(#clip0_124_29)">
<path d="M121 71.5C121 98.8381 98.8381 121 71.5 121C44.1619 121 22 98.8381 22 71.5C22 44.1619 44.1619 22 71.5 22C98.8381 22 121 44.1619 121 71.5Z" fill="#405A69"/>
<path fill-rule="evenodd" clip-rule="evenodd" d="M71 0C85.0425 0 98.7696 4.16408 110.446 11.9657C122.121 19.7672 131.222 30.8559 136.595 43.8295C141.969 56.803 143.375 71.0788 140.636 84.8514C137.896 98.6241 131.134 111.275 121.205 121.205C111.275 131.134 98.6241 137.896 84.8514 140.636C71.0788 143.375 56.803 141.969 43.8295 136.595C30.8559 131.222 19.7672 122.121 11.9657 110.446C4.16408 98.7696 0 85.0425 0 71C0 52.1696 7.48034 34.1105 20.7954 20.7954C34.1105 7.48034 52.1696 0 71 0V0ZM35.5116 43.9128L71.6471 73.3459L106.211 43.9128H35.5116ZM33.2004 93.4764L58.9356 67.6603L33.1772 46.6746V93.4533L33.2004 93.4764ZM61.7437 69.9715L35.2227 96.5503H106.558L81.2039 69.9715L72.8027 77.09C72.4776 77.3587 72.069 77.5057 71.6471 77.5057C71.2253 77.5057 70.8167 77.3587 70.4915 77.09L61.7206 69.9369L61.7437 69.9715ZM83.9774 67.6603L108.823 93.7075V46.4435L83.9774 67.6141V67.6603Z" fill="white"/>
</g>
<defs>
<clipPath id="clip0_124_29">
<rect width="142" height="142" fill="white"/>
</clipPath>
</defs>
</svg>
