<svg width="142" height="142" viewBox="0 0 142 142" fill="none" xmlns="http://www.w3.org/2000/svg">
<g clip-path="url(#clip0_124_25)">
<path d="M118 71C118 96.9574 96.9574 118 71 118C45.0426 118 24 96.9574 24 71C24 45.0426 45.0426 24 71 24C96.9574 24 118 45.0426 118 71Z" fill="#405A69"/>
<path fill-rule="evenodd" clip-rule="evenodd" d="M71 0C110.184 0 142 31.7732 142 71C142 110.184 110.227 142 71 142C31.8158 142 0 110.227 0 71C0 31.8158 31.7732 0 71 0ZM54.3893 32.0288H87.6107C100.09 32.0288 110.269 42.123 110.269 54.3893V87.5255C110.269 99.8344 100.09 109.886 87.6107 109.886H54.3893C41.91 109.886 31.7307 99.8344 31.7307 87.5255V54.3893C31.7307 42.0804 41.9526 32.0288 54.3893 32.0288ZM70.787 49.9598C82.9256 49.9598 92.7643 59.7984 92.7643 71.937C92.7643 84.0756 82.9256 93.9142 70.787 93.9142C58.6485 93.9142 48.8098 84.0756 48.8098 71.937C48.8098 59.7984 58.6485 49.9598 70.787 49.9598ZM70.787 57.3707C78.7942 57.3707 85.3107 63.8872 85.3107 71.8944C85.3107 79.9016 78.7942 86.4181 70.787 86.4181C62.7373 86.4181 56.2633 79.9016 56.2633 71.8944C56.2633 63.8872 62.7798 57.3707 70.787 57.3707ZM92.0402 46.8932C93.9994 46.8932 95.6179 48.4691 95.6179 50.4709C95.6179 52.4301 94.042 54.0486 92.0402 54.0486C90.081 54.0486 88.4625 52.4727 88.4625 50.4709C88.4625 48.5117 90.0384 46.8932 92.0402 46.8932ZM57.1152 38.3749H84.8848C95.3197 38.3749 103.838 46.8506 103.838 57.243V85.183C103.838 95.5753 95.3197 104.051 84.8848 104.051H57.1152C46.6803 104.051 38.162 95.5753 38.162 85.183V57.243C38.162 46.8506 46.6803 38.3749 57.1152 38.3749Z" fill="white"/>
</g>
<defs>
<clipPath id="clip0_124_25">
<rect width="142" height="142" fill="white"/>
</clipPath>
</defs>
</svg>
