<svg width="25" height="25" viewBox="0 0 25 25" fill="none" xmlns="http://www.w3.org/2000/svg">
<path d="M12.502 0C9.10645 0 8.6792 0.0142415 7.3466 0.0752767C6.30983 0.0963489 5.28413 0.293094 4.31315 0.657145C3.4786 0.96916 2.7229 1.46092 2.09961 2.09757C1.46353 2.72214 0.970671 3.47739 0.655111 4.31112C0.290918 5.28269 0.0948375 6.30919 0.0752767 7.3466C0.016276 8.6792 0 9.10441 0 12.5C0 15.8956 0.0142415 16.3188 0.0752767 17.6534C0.0963489 18.6902 0.293094 19.7159 0.657145 20.6868C0.970697 21.5206 1.46225 22.276 2.09757 22.9004C2.7216 23.5371 3.477 24.0301 4.31112 24.3449C5.28296 24.7081 6.30929 24.9042 7.3466 24.9247C8.6792 24.9858 9.10441 25 12.5 25C15.8956 25 16.3188 24.9858 17.6534 24.9247C18.6907 24.9042 19.717 24.7081 20.6889 24.3449C21.5202 24.0224 22.2753 23.5302 22.9058 22.8997C23.5363 22.2692 24.0285 21.5141 24.351 20.6828C24.7131 19.7113 24.9098 18.6859 24.9329 17.6493C24.9919 16.3167 25.0081 15.8915 25.0081 12.4959C25.0081 9.10034 24.9919 8.67513 24.9329 7.34253C24.9098 6.30531 24.7131 5.27928 24.351 4.30705C24.037 3.47303 23.5447 2.71761 22.9085 2.09351C22.2856 1.45639 21.5298 0.964552 20.695 0.653076C19.7205 0.289513 18.6913 0.0941337 17.6514 0.0752767C16.3167 0.0142415 15.8936 0 12.498 0H12.502ZM11.379 2.2522H12.502C15.8386 2.2522 16.2333 2.2644 17.5517 2.32544C18.3443 2.33446 19.1296 2.47967 19.873 2.75472C20.4158 2.95524 20.9067 3.27506 21.3094 3.69059C21.7241 4.094 22.0438 4.58465 22.2453 5.12695C22.5203 5.87043 22.6655 6.65565 22.6746 7.44832C22.7356 8.76465 22.7478 9.16138 22.7478 12.498C22.7478 15.8346 22.7356 16.2292 22.6746 17.5476C22.6657 18.3396 22.5205 19.1242 22.2453 19.8669C22.037 20.4056 21.7184 20.8948 21.3099 21.303C20.9013 21.7112 20.4119 22.0294 19.873 22.2371C19.1301 22.5143 18.3446 22.6603 17.5517 22.6685C16.2353 22.7295 15.8386 22.7417 12.502 22.7417C9.16545 22.7417 8.76872 22.7295 7.45036 22.6685C6.65757 22.6588 5.87234 22.5129 5.12899 22.2371C4.58565 22.0375 4.09409 21.7184 3.69059 21.3033C3.2758 20.9004 2.95668 20.4096 2.75675 19.8669C2.48101 19.1236 2.33511 18.3384 2.32544 17.5456C2.26644 16.2272 2.25423 15.8325 2.25423 12.4939C2.25423 9.15527 2.26644 8.76261 2.32544 7.44425C2.33389 6.65135 2.47983 5.86591 2.75675 5.12288C2.95668 4.58028 3.2758 4.08944 3.69059 3.68652C4.09441 3.27138 4.58583 2.95164 5.12899 2.75065C5.87258 2.47576 6.65765 2.32989 7.45036 2.31934C8.60392 2.26847 9.04948 2.2522 11.379 2.25016V2.2522ZM19.1732 4.32739C18.8761 4.32739 18.5858 4.4155 18.3388 4.58058C18.0918 4.74565 17.8994 4.98027 17.7858 5.25474C17.6722 5.52922 17.6426 5.83122 17.7007 6.12253C17.7588 6.41384 17.902 6.68137 18.1122 6.89127C18.3224 7.10118 18.5901 7.24402 18.8815 7.30172C19.1729 7.35942 19.4749 7.3294 19.7492 7.21545C20.0235 7.10149 20.2579 6.90873 20.4226 6.66155C20.5873 6.41436 20.675 6.12387 20.6746 5.82682C20.6746 5.62974 20.6358 5.4346 20.5603 5.25255C20.4848 5.07049 20.3742 4.90511 20.2347 4.76585C20.0953 4.62658 19.9298 4.51618 19.7476 4.44095C19.5655 4.36571 19.3703 4.32713 19.1732 4.32739ZM12.502 6.08114C11.2325 6.08114 9.99148 6.4576 8.9359 7.16291C7.88033 7.86822 7.05761 8.87071 6.57178 10.0436C6.08595 11.2165 5.95883 12.5071 6.20651 13.7523C6.45418 14.9974 7.06552 16.1411 7.96321 17.0388C8.86091 17.9365 10.0046 18.5479 11.2498 18.7955C12.4949 19.0432 13.7855 18.9161 14.9584 18.4303C16.1313 17.9444 17.1338 17.1217 17.8391 16.0661C18.5444 15.0106 18.9209 13.7695 18.9209 12.5C18.9204 10.7978 18.2439 9.16543 17.0403 7.96177C15.8366 6.75812 14.2043 6.08168 12.502 6.08114ZM12.502 8.33333C13.3264 8.33213 14.1326 8.57547 14.8186 9.03257C15.5046 9.48968 16.0396 10.14 16.3559 10.9013C16.6722 11.6625 16.7556 12.5005 16.5955 13.3091C16.4354 14.1178 16.0391 14.8608 15.4566 15.4441C14.8741 16.0274 14.1317 16.4249 13.3233 16.5862C12.5148 16.7474 11.6768 16.6653 10.915 16.3501C10.1533 16.0349 9.50222 15.5008 9.04411 14.8155C8.586 14.1302 8.34147 13.3243 8.34147 12.5C8.34362 11.3974 8.78272 10.3406 9.56257 9.56114C10.3424 8.78167 11.3994 8.34308 12.502 8.34147V8.33333Z" fill="#405A69"/>
</svg>
