<svg width="142" height="142" viewBox="0 0 142 142" fill="none" xmlns="http://www.w3.org/2000/svg">
<g clip-path="url(#clip0_124_21)">
<path d="M124 71.5C124 100.495 100.495 124 71.5 124C42.5051 124 19 100.495 19 71.5C19 42.5051 42.5051 19 71.5 19C100.495 19 124 42.5051 124 71.5Z" fill="#405A69"/>
<path fill-rule="evenodd" clip-rule="evenodd" d="M71 0C110.212 0 142 31.7876 142 71C142 110.212 110.212 142 71 142C31.7876 142 0 110.212 0 71C0 31.7876 31.7876 0 71 0ZM105.173 38.8533L92.5061 102.719C92.5061 102.719 90.7348 107.147 85.8631 105.021L56.7205 82.079C56.7205 82.079 89.1407 52.9368 90.469 51.6967C91.7977 50.4566 91.3547 50.1912 91.3547 50.1912C91.4428 48.6853 88.9631 50.1912 88.9631 50.1912L46.0028 77.4735L28.11 71.4499C28.11 71.4499 25.364 70.4752 25.0986 68.3499C24.8328 66.2233 28.1986 65.0722 28.1986 65.0722L99.3277 37.1701C99.3277 37.1701 105.173 34.6014 105.173 38.8533ZM67.8399 91.2039L56.2779 101.745C56.2779 101.745 55.3739 102.431 54.3852 102.001L56.5991 82.4202L67.8399 91.2039Z" fill="white"/>
</g>
<defs>
<clipPath id="clip0_124_21">
<rect width="142" height="142" fill="white"/>
</clipPath>
</defs>
</svg>
