<svg width="25" height="22" viewBox="0 0 25 22" fill="none" xmlns="http://www.w3.org/2000/svg">
<path d="M25 0.765449L21.046 20.7011C21.046 20.7011 20.493 22.0835 18.9723 21.4197L9.87546 14.2584C9.87546 14.2584 19.9955 5.16163 20.4101 4.77454C20.8248 4.38744 20.6865 4.3046 20.6865 4.3046C20.7141 3.83453 19.94 4.3046 19.94 4.3046L6.52992 12.8208L0.944675 10.9405C0.944675 10.9405 0.0875123 10.6362 0.00466838 9.97283C-0.0783085 9.30901 0.972334 8.94971 0.972334 8.94971L23.1753 0.240061C23.1753 0.240061 25 -0.561783 25 0.765449Z" fill="#405A69"/>
<path d="M13.3464 17.1067L9.7373 20.3972C9.7373 20.3972 9.45513 20.6112 9.14649 20.4771L9.83756 14.3649L13.3464 17.1067Z" fill="#405A69"/>
</svg>
