<svg width="25" height="25" viewBox="0 0 25 25" fill="none" xmlns="http://www.w3.org/2000/svg">
<path d="M12.4793 0C14.612 0.00119102 16.7089 0.54751 18.5709 1.58706C20.433 2.6266 21.9982 4.12486 23.118 5.93948C24.2379 7.75411 24.875 9.82485 24.969 11.955C25.063 14.0851 24.6107 16.2039 23.655 18.1101L24.9658 23.3477C25.0153 23.5493 25.011 23.7603 24.9534 23.9597C24.8959 24.1591 24.787 24.3399 24.6376 24.4841C24.4883 24.6283 24.3037 24.7307 24.1024 24.7813C23.901 24.8318 23.6899 24.8287 23.4902 24.7721L18.6218 23.4006C16.9559 24.3354 15.0978 24.876 13.1904 24.9811C11.2829 25.0861 9.37676 24.7528 7.61823 24.0066C5.8597 23.2604 4.29558 22.1213 3.04595 20.6767C1.79633 19.2321 0.89443 17.5204 0.40951 15.673C-0.0754114 13.8256 -0.130461 11.8917 0.248589 10.0197C0.627638 8.14779 1.4307 6.38757 2.59613 4.87423C3.76156 3.36089 5.25835 2.13467 6.97159 1.28973C8.68482 0.444785 10.5689 0.00358366 12.4793 0ZM19.6415 5.34145C18.2951 3.99501 16.5964 3.05519 14.7402 2.62978C12.884 2.20438 10.9455 2.3106 9.1469 2.93626C7.34833 3.56193 5.76255 4.68172 4.57139 6.1672C3.38024 7.65269 2.63195 9.44373 2.41234 11.3349C2.19272 13.2262 2.51067 15.141 3.32972 16.8598C4.14878 18.5786 5.43577 20.0318 7.04312 21.0528C8.65047 22.0738 10.5131 22.6213 12.4174 22.6324C14.3217 22.6434 16.1906 22.1177 17.8097 21.1155C17.9509 21.0215 18.1106 20.9589 18.2781 20.9319C18.4456 20.9049 18.6169 20.914 18.7805 20.9588L22.1591 21.9294L21.2432 18.2667C21.1626 17.97 21.1998 17.6536 21.347 17.3836C21.7594 16.6413 22.0754 15.8495 22.2873 15.0273C22.7226 13.3213 22.7076 11.5316 22.2438 9.83313C21.78 8.13467 20.8834 6.5856 19.6415 5.33738V5.34145Z" fill="#405A69"/>
</svg>
