<svg width="55" height="55" viewBox="0 0 55 55" fill="none" xmlns="http://www.w3.org/2000/svg">
<path d="M26.7214 3.56709C30.0633 1.29868 34.9649 -0.0826977 39.6474 0.00384135C44.0474 0.0838899 48.2959 1.45012 50.9858 4.56986C51.8731 5.59751 52.5821 6.78309 53.1482 8.11904C53.7046 9.43118 54.1225 10.8786 54.4351 12.4568C55.0442 15.5365 55.1333 18.9678 54.8336 22.5051C54.5028 26.4026 53.7014 30.4374 52.6078 34.2765C51.8129 37.0663 49.4539 44.0068 46.4161 48.9903C44.4191 52.2648 42.0762 54.7441 39.54 54.9064C38.3047 54.9864 37.1714 54.5115 36.1347 53.5055C35.226 52.6217 34.3913 51.3052 33.6275 49.5734L33.606 49.5312L32.6167 47.0075C32.4781 46.6527 32.3073 46.1811 32.1215 45.6683C31.1676 43.0332 29.7668 39.1638 27.743 38.6716C26.0489 38.2606 24.6954 41.615 23.8618 43.679C23.7609 43.93 23.6663 44.1636 23.4923 44.5682C23.401 44.7791 23.199 45.2811 22.9724 45.8457C21.6199 49.2078 19.3308 54.8999 16.0716 54.9983C14.9458 55.0329 13.8426 54.5386 12.762 53.5401C11.8156 52.665 10.8638 51.3745 9.90778 49.6902C9.28474 48.6052 8.62624 47.3331 7.95163 45.916C7.3071 44.5585 6.64969 43.0624 5.99871 41.4614C4.80418 38.5202 3.37011 34.7276 2.21318 30.6668C1.04336 26.5562 0.139942 22.1265 0.0131843 17.925C-0.0652334 15.2996 0.204395 12.751 0.869334 10.4404C1.50419 8.23586 2.49892 6.24763 3.89325 4.60988C6.62928 1.40036 10.2311 0.106606 14.0113 0.0265578C18.3941 -0.0653899 23.0068 1.49556 26.7214 3.56709ZM5.22957 16.9947C5.68611 14.3325 6.61961 11.8564 8.15251 9.80006C9.55221 7.92324 11.4364 6.41097 13.892 5.44498L14.6741 7.46026C12.6094 8.27264 11.0325 9.53395 9.86803 11.096C8.55642 12.8549 7.75076 15.014 7.349 17.3592L5.22957 16.9947ZM46.6094 21.6289H46.5052C46.5052 20.7635 46.184 20.0084 45.5427 19.3626C44.9014 18.7168 44.1516 18.3945 43.2933 18.3945V18.2885C44.1516 18.2885 44.9014 17.965 45.5427 17.3181C46.184 16.6691 46.5052 15.914 46.5052 15.053H46.6094C46.6094 15.9173 46.9306 16.6723 47.5719 17.3181C48.2132 17.9639 48.963 18.2874 49.8224 18.2874V18.3923C48.963 18.3923 48.2132 18.7157 47.5719 19.3615C46.9306 20.0084 46.6094 20.7635 46.6094 21.6289ZM39.062 23.9427H38.9771C38.9771 23.2547 38.7215 22.6511 38.2101 22.1373C37.6999 21.6224 37.1026 21.3638 36.4173 21.3638V21.2795C37.1005 21.2795 37.6999 21.0209 38.2101 20.5071C38.7215 19.99 38.9771 19.3897 38.9771 18.7028H39.062C39.062 19.3907 39.3176 19.9944 39.829 20.5082C40.3392 21.0231 40.9365 21.2816 41.6218 21.2816V21.366C40.9386 21.366 40.3392 21.6245 39.829 22.1384C39.3166 22.6511 39.062 23.2525 39.062 23.9427ZM40.9333 16.284H40.77C40.77 14.9383 40.2694 13.7592 39.2693 12.7521C38.2681 11.7439 37.1005 11.2409 35.7609 11.2409V11.0765C37.0983 11.0765 38.2681 10.5724 39.2693 9.56316C40.2694 8.55281 40.77 7.37588 40.77 6.03237H40.9333C40.9333 7.37913 41.4338 8.55822 42.4339 9.56532C43.434 10.5724 44.6028 11.0765 45.9413 11.0765V11.2409C44.6039 11.2409 43.434 11.745 42.4339 12.7521C41.4338 13.7592 40.9333 14.9383 40.9333 16.284ZM28.583 4.93224C30.7185 6.47371 31.4329 7.21362 32.6876 8.85786C31.0075 8.30726 28.9375 7.39752 27.2671 6.40881C26.9212 6.20328 26.586 5.98585 26.2391 5.78248C22.7124 3.70987 18.2372 2.097 14.0532 2.18571C10.8499 2.25386 7.80984 3.33451 5.52498 6.01506C4.33475 7.41266 3.48075 9.1283 2.92968 11.0419C2.32812 13.1307 2.08535 15.4554 2.15732 17.8655C2.27656 21.843 3.14989 26.0975 4.28212 30.074C5.4283 34.1002 6.82478 37.7976 7.98279 40.6491C8.60798 42.1873 9.24929 43.6444 9.8863 44.9847C10.5233 46.3249 11.1571 47.5451 11.7651 48.6063L11.7694 48.615C12.6137 50.1034 13.4301 51.222 14.2165 51.9489C14.8717 52.5536 15.4722 52.8565 16.0125 52.8402C17.8613 52.784 19.8217 47.9108 20.9797 45.0323C21.1527 44.6006 21.3074 44.2177 21.5243 43.7125C21.5684 43.6119 21.7113 43.2571 21.8692 42.8655C22.967 40.145 24.7524 35.7239 28.2479 36.572C31.3899 37.3357 33.026 41.8541 34.1399 44.9317C34.3054 45.3881 34.4568 45.8079 34.618 46.22L35.6073 48.7437L35.6052 48.7448C36.2465 50.19 36.9189 51.2631 37.6236 51.9478C38.208 52.5157 38.802 52.7861 39.4057 52.7483C41.1127 52.638 42.9238 50.5859 44.5824 47.8642C47.4946 43.0884 49.7698 36.3827 50.5389 33.6837C51.597 29.9701 52.3715 26.077 52.6895 22.3277C52.9731 18.9797 52.8925 15.7518 52.3242 12.8798C52.0374 11.4302 51.6625 10.1213 51.1727 8.96496C50.6914 7.83238 50.0985 6.8361 49.3626 5.98369C47.1143 3.3767 43.4512 2.23222 39.6141 2.16191C35.6492 2.08943 31.5403 3.15278 28.583 4.93224Z" fill="#405A69"/>
</svg>
