<svg width="142" height="142" viewBox="0 0 142 142" fill="none" xmlns="http://www.w3.org/2000/svg">
<path d="M125 71C125 100.823 100.823 125 71 125C41.1766 125 17 100.823 17 71C17 41.1766 41.1766 17 71 17C100.823 17 125 41.1766 125 71Z" fill="#405A69"/>
<path fill-rule="evenodd" clip-rule="evenodd" d="M71 0C110.184 0 142 31.7732 142 71C142 110.184 110.227 142 71 142C31.8158 142 0 110.227 0 71C0 31.8158 31.7732 0 71 0ZM100.814 40.5471C93.3605 33.0936 83.4793 29.0048 72.9166 29.0048C51.195 29.0048 33.5195 46.6803 33.5195 68.4019C33.5195 75.3443 35.3509 82.1164 38.8008 88.0792L33.2214 108.523L54.1338 103.029C59.8836 106.181 66.3575 107.842 72.9592 107.842C94.6809 107.842 112.356 90.1662 112.356 68.4445C112.356 57.9244 108.268 48.0006 100.814 40.5471ZM72.9592 101.197C67.0816 101.197 61.2891 99.6215 56.2633 96.6401L55.0708 95.916L42.6767 99.153L45.9988 87.057L45.2322 85.8218C41.9526 80.6257 40.2064 74.5777 40.2064 68.4019C40.2064 50.3431 54.9004 35.6491 73.0018 35.6491C81.7331 35.6491 89.9958 39.0564 96.1716 45.2322C102.347 51.4505 105.755 59.6281 105.755 68.4019C105.755 86.4607 91.0606 101.197 73.0018 101.197H72.9592ZM90.9328 76.6647C89.9532 76.1536 85.0978 73.811 84.2034 73.4703C83.3089 73.1296 82.6275 72.9592 81.9886 73.9814C81.3497 74.961 79.4331 77.1758 78.8794 77.8572C78.2831 78.4961 77.7295 78.6239 76.7499 78.1128C75.7703 77.6017 72.5759 76.5795 68.8278 73.2148C65.889 70.6167 63.9298 67.3797 63.3335 66.4001C62.7373 65.4205 63.2484 64.8668 63.7594 64.3983C64.228 63.9724 64.7391 63.2483 65.2502 62.6521C65.7613 62.0558 65.889 61.6725 66.2298 60.991C66.5705 60.3521 66.4001 59.7558 66.1446 59.2448C65.889 58.7337 63.9298 53.9208 63.1206 51.919C62.3113 50.0024 61.5021 50.258 60.9058 50.2154C60.3095 50.1728 59.6707 50.1728 59.0318 50.1728C58.3929 50.1728 57.3281 50.4283 56.3911 51.4079C55.4967 52.3875 52.9412 54.7726 52.9412 59.6281C52.9412 64.4835 56.4763 69.1686 56.9448 69.8074C57.4559 70.4463 63.8872 80.4127 73.7684 84.6719C76.111 85.6941 77.9424 86.2903 79.3905 86.7589C81.7331 87.4829 83.9052 87.3977 85.6089 87.1422C87.4829 86.844 91.4439 84.757 92.2532 82.4571C93.0624 80.1572 93.0624 78.198 92.8494 77.772C92.6365 77.3461 91.955 77.0906 90.9754 76.5795L90.9328 76.6647Z" fill="white"/>
</svg>
